<svg width="53" height="39" viewBox="0 0 53 39" fill="none" xmlns="http://www.w3.org/2000/svg">
<path d="M23.0488 4.43641C23.1697 4.14272 23.4632 3.52081 23.6704 3.07165V3.05437C23.8948 2.60521 24.1538 2.24243 24.2574 2.24243C24.361 2.24243 24.9998 2.55339 25.6559 2.91617C26.312 3.27895 27.1234 3.72811 27.4169 3.90087C27.9522 4.21183 27.9867 4.28093 27.9867 6.21577H27.3824C27.0544 6.21577 26.7263 6.11212 26.6745 5.99119C26.5882 5.83571 26.5364 5.83571 26.4501 6.00847C26.3638 6.19849 26.2084 6.16394 25.7422 5.88754C25.4142 5.68023 25.0861 5.52475 24.9998 5.52475C24.9307 5.52475 24.8789 5.64568 24.8789 5.78389C24.8789 5.92209 24.8271 6.02574 24.7581 5.99119C24.6718 5.97391 24.2056 5.74933 22.8071 5.00649L23.0488 4.43641Z" fill="white"/>
<path d="M29.0917 5.88754C28.6773 5.88754 28.66 5.87026 28.9708 5.55931C29.1435 5.36928 29.3334 5.2138 29.4025 5.2138C29.4888 5.19652 29.5406 5.352 29.5406 5.54203C29.5406 5.80116 29.4197 5.88754 29.0917 5.88754Z" fill="white"/>
<path d="M34.6857 14.2661L35.1691 14.0588C35.618 13.8688 35.6525 13.886 35.7043 14.2834C35.7388 14.508 35.8597 14.698 35.9806 14.698C36.0841 14.6807 36.3777 14.5771 36.6194 14.4389C36.8611 14.3006 37.1028 14.197 37.1891 14.1797C37.2582 14.1797 37.31 14.4907 37.31 15.5618L37.8797 15.389C38.2768 15.2681 38.5013 15.2853 38.6567 15.4408C38.7775 15.5618 38.8811 15.9936 38.8811 16.4255C38.8639 16.8574 38.9675 17.3929 39.0883 17.6348C39.2437 17.9458 39.4682 18.084 39.8653 18.1012C40.3487 18.1531 40.4178 18.2049 40.4178 18.6713C40.4178 19.155 40.4695 19.1896 41.1947 19.276L41.2016 19.2768C41.9545 19.3623 41.9716 19.3643 41.9716 20.0015C41.9716 20.5198 42.1098 20.7962 42.645 21.349C43.0939 21.8154 43.5082 22.541 43.9226 23.5948C44.2507 24.4413 44.7341 25.8061 44.9758 26.618C45.2175 27.4299 45.6146 29.0193 45.8391 30.1595C46.0808 31.2996 46.357 32.9926 46.4434 33.9082C46.5469 34.8411 46.6333 35.9813 46.6333 37.3287L43.56 37.2424L43.4392 35.6012C43.3874 34.7029 43.1802 33.1135 43.0076 32.0597C42.8176 31.0059 42.4378 29.3302 42.1443 28.2937C41.868 27.2745 41.3155 25.6506 40.9184 24.6659C40.5386 23.6985 39.7962 22.0918 39.261 21.0899C38.743 20.0879 37.897 18.654 37.3963 17.8939C36.8956 17.1338 36.0841 16.0109 34.6857 14.2661Z" fill="white"/>
<path d="M29.5061 15.8554C29.4715 16.0627 29.7305 15.89 30.2139 15.4063L30.9736 14.6634L31.0427 15.3717C31.0599 15.7518 31.129 16.08 31.1808 16.08C31.2326 16.08 31.4225 15.9936 31.6124 15.9073L31.6124 15.9073C31.8023 15.8036 32.1131 15.4754 32.6483 14.6116V15.1299C32.6483 15.5272 32.7001 15.579 32.821 15.389C32.9591 15.1644 33.0109 15.1644 33.2008 15.4063C33.3217 15.5618 33.9087 16.3046 34.4785 17.0474C35.0655 17.8076 35.9633 19.1032 36.4813 19.967C37.0165 20.8135 37.6898 22.0227 38.0006 22.6447C38.3114 23.2666 38.8984 24.6141 39.2955 25.6679C39.7099 26.7217 40.2796 28.5356 40.5731 29.7276C40.8666 30.9196 41.2292 32.8026 41.3673 33.9082C41.5055 35.0311 41.6263 36.2058 41.6263 37.0696L40.4523 37.1214C39.8135 37.1387 39.1228 37.1214 38.8984 37.0696C38.5704 37.0005 38.5013 36.845 38.415 35.9813C38.3632 35.4457 38.2078 34.1846 38.0524 33.1826C37.9143 32.1807 37.5862 30.6259 37.31 29.7276C37.051 28.8292 36.5503 27.3436 36.1877 26.4452C35.8424 25.5469 35.1863 24.1476 34.7547 23.3357C34.3231 22.5237 33.5807 21.2799 33.1145 20.5716C32.6311 19.8633 31.8023 18.7231 31.2499 18.0667C30.7146 17.4102 30.024 16.6328 29.7305 16.3391C29.437 16.0455 29.1953 15.7691 29.1953 15.6827C29.1953 15.6136 29.2643 15.5618 29.3679 15.5618C29.4715 15.5618 29.5233 15.7 29.5061 15.8554Z" fill="white"/>
<path d="M24.3782 17.9458C24.3782 17.8767 24.4646 17.6175 24.5509 17.3757C24.6372 17.1338 24.7408 16.9265 24.7926 16.9265C24.8444 16.9265 24.8789 17.3066 24.8789 17.7557C24.8962 18.4986 24.8617 18.5504 24.62 18.3085C24.4646 18.1703 24.361 17.9976 24.3782 17.9458Z" fill="white"/>
<path d="M25.2242 18.7922C25.2242 18.7231 25.466 18.2913 25.7595 17.8594L26.2947 17.0474L26.4156 17.8594L26.4172 17.8717C26.5192 18.6542 26.5212 18.67 26.9162 18.4122C27.1234 18.2567 27.4342 17.9112 27.9004 17.082L28.9363 18.2222C29.5061 18.8614 30.4556 20.0534 31.0427 20.8826C31.6297 21.6945 32.493 23.0765 32.9591 23.923C33.4426 24.7868 34.0986 26.1861 34.4267 27.0326C34.772 27.8964 35.2381 29.2611 35.4626 30.0558C35.7043 30.8677 36.0151 32.267 36.1532 33.1654C36.3086 34.081 36.464 35.3248 36.6366 37.0523L35.7216 37.1905C35.2209 37.2596 34.513 37.3115 34.1677 37.3115C33.5634 37.3115 33.5116 37.2769 33.4253 36.7586C33.3908 36.4477 33.3044 35.653 33.2354 34.9793C33.1836 34.3228 32.9419 33.0444 32.7347 32.1288C32.5102 31.2305 32.1131 29.9176 31.8541 29.192C31.6124 28.4837 31.0427 27.2054 30.611 26.3416C30.1967 25.4951 29.4888 24.2513 29.0572 23.5775C28.6428 22.9211 27.8313 21.8327 27.2961 21.159C26.7436 20.5025 26.053 19.7251 25.7595 19.4314C25.466 19.155 25.2242 18.8614 25.2242 18.7922Z" fill="white"/>
<path d="M21.3913 20.7444C21.8575 20.2952 22.151 19.8288 22.2373 19.4487L22.3409 18.8441L23.2905 19.656C23.8085 20.1052 24.6372 20.9517 25.1379 21.5218C25.6386 22.0918 26.4673 23.1284 26.968 23.8539C27.486 24.5622 28.3147 25.927 28.7982 26.8771C29.2989 27.8273 29.9549 29.4166 30.283 30.4186C30.611 31.4033 31.0081 32.9581 31.1463 33.8737C31.3016 34.772 31.457 35.8776 31.4743 36.3268C31.5261 37.1214 31.5088 37.156 31.0081 37.2251C30.7319 37.2769 30.0067 37.346 28.332 37.5015V36.6377C28.332 36.154 28.1766 35.0138 28.004 34.081C27.814 33.1654 27.4515 31.8179 27.1925 31.1096C26.9508 30.384 26.4673 29.2611 26.1393 28.6047C25.8113 27.9309 25.1034 26.7217 24.5682 25.927C24.0329 25.115 22.928 23.7848 20.6489 21.4527L21.3913 20.7444Z" fill="white"/>
<path fill-rule="evenodd" clip-rule="evenodd" d="M16.7635 12.0895C15.6758 12.5387 14.1564 13.2297 13.3968 13.6097C12.6371 13.9898 11.2041 14.8536 10.2027 15.5273C9.20128 16.1838 7.76826 17.2721 7.00858 17.9286C6.24891 18.5851 5.16119 19.6561 4.6087 20.3299C4.03894 20.9863 3.40012 21.8328 3.15841 22.2129C2.91669 22.5929 2.46779 23.4913 2.17428 24.1996C1.86351 24.9078 1.44914 26.1517 1.24195 26.9636C1.05203 27.7756 0.827585 29.123 0.775789 29.9868C0.706728 31.1097 0.758524 31.9044 0.948442 32.8372C1.10383 33.5455 1.38008 34.4439 1.57 34.8239C1.74265 35.204 2.19155 35.8604 2.57139 36.2923C2.95122 36.7242 3.64184 37.277 4.14253 37.5361C4.62596 37.8126 5.02307 37.9335 5.02307 37.8471C5.02307 37.7435 4.79862 37.3807 4.52237 37.0179C4.26339 36.6724 3.81449 35.9468 3.55551 35.4286C3.29653 34.9103 2.96849 33.9256 2.83037 33.2691C2.65771 32.4745 2.60592 31.6452 2.67498 30.8506C2.74404 30.1768 2.91669 29.1749 3.05482 28.6048C3.2102 28.0347 3.57278 27.0154 3.88355 26.359C4.17706 25.6852 4.85041 24.5278 5.36837 23.7849C5.88633 23.0248 6.81866 21.9019 7.44021 21.28C8.06177 20.6581 9.3912 19.5179 10.4099 18.7578C11.4112 17.9977 13.2414 16.7711 14.4499 16.0456C15.6758 15.32 17.4714 14.3526 18.4555 13.8861C20.0094 13.1606 20.2338 13.0051 20.2338 12.625C20.2166 12.2968 20.113 12.1586 19.6986 12.055C19.3706 11.9859 19.1634 11.8131 19.1289 11.5885C19.0943 11.3985 18.9907 11.243 18.9044 11.2603C18.8181 11.2603 17.8512 11.6403 16.7635 12.0895ZM41.4357 0.825957C41.6083 1.18874 42.4716 2.77808 43.3349 4.36741C44.4744 6.47501 44.8542 7.30423 44.6988 7.3906C44.578 7.47698 43.5075 7.56336 42.3162 7.59791L40.1581 7.66701C38.9495 6.14678 38.466 5.71489 38.3107 5.71489C38.138 5.71489 38.0344 5.81854 38.0689 5.9222C38.1035 6.04312 38.3452 6.59594 38.5869 7.13147L39.0358 8.13344C36.8258 8.16799 36.774 8.18527 37.3956 8.3062C37.7754 8.3753 38.2589 8.39258 38.4833 8.35802C38.6905 8.34075 38.8632 8.3753 38.8632 8.47895C38.8632 8.56533 38.725 8.92811 38.5696 9.25634C38.2934 9.79188 38.2934 9.89553 38.5178 10.1201C38.7423 10.3447 38.8459 10.2756 39.4674 9.4982L40.1581 8.63443C43.6284 8.80718 44.6988 8.91084 44.7679 8.97994C44.8197 9.03176 44.2672 10.2065 43.5248 11.5885C42.7651 12.9706 42.1436 14.2144 42.1436 14.3526C42.1263 14.4908 42.2644 14.7326 42.4198 14.8708C42.6615 15.0954 42.7133 15.0954 42.9032 14.8536C43.0068 14.7154 43.5939 13.9898 44.2154 13.247C45.2513 12.0204 45.3895 11.9168 45.9937 11.934C46.5635 11.934 46.6326 11.8822 46.6326 11.5021C46.6326 11.243 46.529 11.053 46.3563 11.0184C46.1319 11.0012 46.2873 10.7248 46.9261 9.94736L47.7893 8.91084C51.2424 8.58261 52.3129 8.42713 52.3819 8.35802C52.451 8.28892 52.3819 8.09889 52.2265 7.96069C52.0193 7.77066 51.3633 7.68428 49.9475 7.61518L47.962 7.52881C46.5635 5.90492 46.2873 5.47304 46.4254 5.43848C46.529 5.40393 46.6326 5.12753 46.6326 4.85112C46.6326 4.36741 46.598 4.33286 45.9937 4.36741C45.3722 4.41924 45.3031 4.36741 43.7492 2.51894C42.7824 1.36149 41.9536 0.532275 41.6256 0.394072L41.0904 0.186768L41.4357 0.825957ZM17.7131 15.3373C16.7635 15.8901 15.365 16.7711 14.6053 17.3067C13.8457 17.8422 12.6716 18.7751 11.9983 19.3797C11.3077 19.9844 10.3753 20.9 9.92642 21.4355C9.46026 21.9538 8.80418 22.7657 8.47614 23.2494C8.13083 23.7158 7.61287 24.5278 7.31936 25.046C7.02585 25.5816 6.54242 26.7045 6.26617 27.551C5.97266 28.4147 5.66188 29.7277 5.55829 30.4878C5.43743 31.2479 5.38564 32.5436 5.4029 33.3382L5.4547 34.8066C6.07625 33.4764 6.2489 33.01 6.2489 32.9063C6.2489 32.82 6.3525 32.6645 6.47335 32.5608C6.61148 32.4745 6.95678 31.6625 7.26756 30.7469C7.57834 29.8486 8.0445 28.6912 8.30348 28.1556C8.57973 27.6374 9.25308 26.5145 9.82283 25.6507C10.3926 24.8042 11.2904 23.5949 11.8256 22.973C12.3608 22.3684 12.8443 21.6255 12.8961 21.3318C12.9479 21.0554 13.3104 20.4681 13.7075 20.0189C14.1046 19.587 14.6744 19.1033 14.9506 18.9651C15.2959 18.7924 15.6758 18.3259 16.0556 17.6004C16.3664 16.9957 16.7462 16.3565 16.8844 16.1838C17.0225 15.9937 17.5059 15.6828 17.9548 15.4582C18.3864 15.2509 18.9562 14.9054 19.1807 14.7154C19.4224 14.5081 19.5778 14.3526 19.526 14.3526C19.4914 14.3526 18.6627 14.8017 17.7131 15.3373Z" fill="white"/>
<path d="M27.9854 6.21591L28.0026 5.24849L28.0199 4.29834L28.5378 4.6093C28.8314 4.78205 29.1076 5.02391 29.1767 5.14483C29.2285 5.26576 29.1249 5.47307 28.935 5.61127C28.6069 5.85312 28.6069 5.85312 29.0731 5.8704C29.3493 5.8704 29.5565 5.76675 29.591 5.62854C29.6083 5.43852 29.7982 5.50762 30.9205 6.38866L30.109 6.8551C29.5738 7.14878 28.9177 7.33881 28.2443 7.39063C27.2775 7.47701 27.1394 7.44246 26.0516 6.80327C25.3092 6.38866 24.8776 6.0086 24.8776 5.83585C24.8776 5.6631 24.9294 5.52489 25.0157 5.52489C25.0848 5.52489 25.4128 5.68037 25.7409 5.88768C26.207 6.16408 26.3624 6.19863 26.4487 6.0086C26.5351 5.83585 26.5869 5.83585 26.6732 6.0086C26.725 6.11226 27.053 6.21591 27.9854 6.21591Z" fill="white"/>
<path d="M21.3382 8.27168C21.2864 8.23713 21.4073 7.85707 21.5972 7.45974C21.8044 7.0624 21.9943 6.71689 22.0461 6.71689C22.0806 6.71689 22.4259 6.87237 22.8058 7.0624C23.2662 7.29274 23.4676 7.49429 23.41 7.66704C23.3582 7.83979 23.0993 7.92617 22.7194 7.92617C22.3914 7.92617 21.9597 8.02982 21.7698 8.15075C21.5972 8.27168 21.39 8.3235 21.3382 8.27168Z" fill="white"/>
<path d="M32.6125 11.3294C32.8715 11.2603 33.4239 11.1394 33.8556 11.053C34.2872 10.9839 34.9088 10.8975 35.2368 10.8975C35.7375 10.8803 35.9619 11.0185 36.6526 11.744C37.1187 12.2105 38.0165 13.3161 38.6726 14.1971C39.3287 15.0782 40.3473 16.5639 40.9171 17.514C41.4869 18.4642 41.953 19.2761 41.9185 19.2934C41.9012 19.3107 41.5559 19.2761 41.1416 19.207C40.4855 19.0861 40.4164 19.0342 40.4164 18.6024C40.4164 18.1878 40.3473 18.1186 39.8639 18.0841C39.4668 18.0495 39.2424 17.9113 39.087 17.6004C38.9661 17.3758 38.8625 16.823 38.8798 16.3911C38.8798 15.9765 38.7762 15.5273 38.6553 15.4064C38.5 15.2509 38.2755 15.2509 37.3086 15.5273V14.8363C37.3086 14.4563 37.2568 14.1626 37.1705 14.1626C37.1015 14.1626 36.8598 14.2835 36.6181 14.4044L36.618 14.4044C36.3763 14.5426 36.0828 14.6636 35.9619 14.6636C35.8584 14.6636 35.7548 14.4735 35.7548 14.2317C35.7548 13.8344 35.7375 13.8171 35.185 14.0071C34.6325 14.1971 34.6325 14.1971 32.1636 11.4676L32.6125 11.3294Z" fill="white"/>
<path d="M27.4329 13.938C27.4156 13.8689 28.0544 13.5061 28.8659 13.1261L30.3162 12.4523L31.3866 13.5234C31.9909 14.1108 32.4743 14.6808 32.4743 14.8018C32.4743 14.9227 32.2499 15.2509 31.9737 15.5273C31.6974 15.821 31.3866 16.0456 31.283 16.0456C31.1794 16.0456 31.0931 15.7346 31.0931 14.5772L30.3162 15.3546C29.7464 15.9247 29.5392 16.0456 29.5392 15.8383C29.5392 15.6655 29.4356 15.5619 29.3148 15.6137C29.2112 15.6483 28.745 15.32 28.2961 14.8709C27.8472 14.439 27.4501 14.0071 27.4329 13.938Z" fill="white"/>
<path d="M24.8431 15.0782C24.9121 15.13 25.0675 15.0955 25.2056 15.0091C25.361 14.9054 25.6891 15.0609 26.2416 15.5273C26.6732 15.8901 27.2257 16.3738 27.4329 16.5984C27.7091 16.8748 27.8127 17.1167 27.7436 17.3931C27.6918 17.6004 27.3983 17.9804 26.5178 18.6887L26.3451 17.0303L25.7409 17.9113C25.4128 18.3951 25.0848 18.7406 25.0157 18.6715C24.9467 18.6024 24.8776 18.1705 24.7913 16.823L24.2733 17.9804L23.3582 17.2376C22.5122 16.5293 22.4604 16.4602 22.7194 16.1838C22.8748 16.0111 23.0993 15.8728 23.2029 15.8728C23.3237 15.8728 23.7035 15.6828 24.0661 15.441C24.4114 15.1991 24.774 15.0436 24.8431 15.0782Z" fill="white"/>
<path d="M20.2332 18.0323C20.3195 18.0323 20.4577 17.9459 20.5613 17.825C20.7166 17.6695 20.9411 17.7559 21.5109 18.1705C21.9425 18.4814 22.2878 18.8615 22.2878 19.0342C22.2878 19.1897 22.1497 19.6043 21.9943 19.9498C21.8216 20.2953 21.4418 20.7618 20.5613 21.401L19.5771 20.6754C19.0246 20.2781 18.5067 19.898 18.4031 19.8289C18.2995 19.7425 18.6275 19.3452 19.1628 18.8615C19.6807 18.4123 20.1642 18.0323 20.2332 18.0323Z" fill="white"/>
<path d="M42.5918 21.2282C42.1084 20.7618 41.9703 20.4854 41.9703 20.0189C41.9703 19.6907 41.9876 19.4489 42.0394 19.5007C42.0739 19.5525 42.3501 20.088 43.2134 21.8329L42.5918 21.2282Z" fill="white"/>
<path d="M39.0007 38.279C38.6035 38.1754 38.5172 38.0717 38.5172 37.6053V37.0352H41.5387L41.6077 37.6398C41.6595 38.2099 41.6423 38.2445 41.2624 38.1235C41.038 38.0544 40.5373 38.089 40.1574 38.1926C39.7776 38.2963 39.2596 38.3308 39.0007 38.279Z" fill="white"/>
<path d="M28.9004 37.398C29.1076 37.3462 29.7119 37.2771 30.2299 37.2598L30.2923 37.2556C30.7901 37.2225 31.2879 37.1893 31.4039 37.1561C31.5248 37.1388 31.6111 37.3289 31.6111 37.6571C31.6111 38.0717 31.5248 38.1926 31.1449 38.2617C30.8859 38.3136 30.1781 38.3308 29.591 38.2963C28.5896 38.2617 28.5033 38.2272 28.5033 37.8644C28.5033 37.6053 28.6242 37.4498 28.9004 37.398Z" fill="white"/>
<path d="M34.5065 37.2601L34.5117 37.2598C35.0469 37.2252 35.7548 37.1907 36.0655 37.1734C36.5662 37.1388 36.618 37.1734 36.618 37.6053C36.6353 38.0026 36.5317 38.1063 36.0655 38.2099C35.7548 38.279 35.0469 38.3481 34.5117 38.3481C33.5103 38.3481 33.5103 38.3308 33.5103 37.8299C33.5103 37.3125 33.5275 37.3116 34.5065 37.2601Z" fill="white"/>
<path d="M43.4896 37.7953C43.4551 37.4498 43.5242 37.3116 43.7832 37.2771C43.9558 37.2425 44.3874 37.2252 44.7327 37.2425C45.0608 37.2598 45.6305 37.2771 45.9931 37.2943C46.5801 37.3116 46.6319 37.3462 46.6319 38.3481L45.0781 38.2963L45.0743 38.2962C43.5414 38.2617 43.5241 38.2614 43.4896 37.7953Z" fill="white"/>
<path d="M30.3171 8.63427C30.8869 8.5479 31.6293 8.44424 31.9573 8.40969C32.2854 8.37514 33.5458 8.34059 34.7716 8.35787C35.9802 8.37514 36.9816 8.44424 37.0161 8.51334C37.0334 8.59972 35.9284 9.04888 34.5472 9.51532C33.1659 9.99903 31.5775 10.5518 31.0078 10.7419C30.438 10.9319 29.6956 11.2256 29.3675 11.3983C29.0395 11.5711 27.9173 12.0721 26.8641 12.5212C25.8109 12.9531 23.9117 13.9205 22.6341 14.6461C21.3564 15.3544 19.3018 16.6673 18.0587 17.5484C16.8156 18.4294 15.1236 19.7423 14.2776 20.5025C12.8619 21.729 12.741 21.7981 12.8619 21.3317C12.9482 21.038 13.3108 20.4679 13.6906 20.036C14.0704 19.6041 14.6229 19.1377 14.9164 18.9822C15.2963 18.7922 15.6589 18.343 16.056 17.6002C16.3667 16.9956 16.7466 16.3564 16.9192 16.1663C17.0746 15.9936 17.5926 15.6481 18.0587 15.4062C18.5422 15.1644 19.0947 14.7843 19.3191 14.5597C19.5263 14.3351 20.3032 13.9033 21.0284 13.575C21.7708 13.2468 23.2211 12.6249 24.2743 12.2103C25.3275 11.7784 27.1058 11.1392 28.2453 10.7937C29.3848 10.4309 31.0941 9.92993 32.0437 9.6708C32.9933 9.41167 34.5126 9.03161 35.4104 8.8243C36.7226 8.5479 36.8607 8.47879 36.101 8.5479C35.5831 8.59972 33.7184 8.94523 31.9573 9.32529C30.1445 9.70535 27.3475 10.4827 25.4828 11.1047C23.6872 11.7093 21.7535 12.4176 20.2169 13.1259V12.6422C20.2169 12.2621 20.1133 12.1412 19.6644 12.003C19.2846 11.8878 19.0947 11.7208 19.0947 11.502C19.0947 11.2429 19.4054 11.0701 20.6485 10.6728C21.4945 10.4136 22.9794 9.99903 23.929 9.75717C24.8786 9.53259 26.0008 9.29074 26.4324 9.23891C26.8641 9.20436 27.6755 9.06616 28.2453 8.97978C28.8151 8.87613 29.7474 8.72065 30.3171 8.63427Z" fill="white"/>
<path d="M38.0865 10.7073C38.0348 10.6555 38.052 10.4827 38.1038 10.31C38.1729 10.1372 38.311 10.0163 38.3973 10.0509C38.5009 10.0854 38.6045 10.2063 38.639 10.31C38.6563 10.4309 38.57 10.5864 38.4319 10.6555C38.2937 10.7419 38.1383 10.7591 38.0865 10.7073Z" fill="white"/>
<path d="M41.367 16.0627C41.1598 16.0627 41.1943 15.8899 41.5569 15.2162L42.0058 14.3524L42.3338 14.7325C42.6446 15.1125 42.6446 15.1125 42.1439 15.579C41.8504 15.8554 41.5051 16.0627 41.367 16.0627Z" fill="white"/>
<path d="M6.09385 33.3553C6.21471 33.0098 6.38736 32.6816 6.49096 32.6125C6.57728 32.5434 6.66361 32.4916 6.66361 32.4916C6.66361 32.4916 6.57728 32.9753 6.45643 33.5627C6.33557 34.15 6.18018 35.342 5.95573 37.7606L5.73128 36.3785C5.55863 35.3593 5.54136 34.841 5.67948 34.4782C5.76581 34.1846 5.95573 33.6836 6.09385 33.3553Z" fill="white"/>
<path d="M28.1759 7.40792C28.9183 7.33882 29.5399 7.14879 30.0578 6.85511C30.4895 6.59598 30.8693 6.38867 30.9211 6.38867C30.9729 6.38867 31.5081 6.80328 33.2174 8.20259L32.6304 8.32352C32.3023 8.37534 31.3355 8.51354 28.9356 8.78995L27.0709 7.51157L28.1759 7.40792Z" fill="white"/>
<path d="M22.6683 7.94346C23.0308 7.94346 23.3244 7.85708 23.3244 7.7707C23.3244 7.66705 23.4279 7.59795 23.5488 7.59795C23.6524 7.59795 24.2912 7.92618 24.9473 8.34079C25.6034 8.73812 26.1559 9.11818 26.1904 9.18728C26.2249 9.27366 26.1213 9.32549 25.966 9.32549C25.7933 9.32549 24.8092 9.53279 21.8568 10.2238L20.5619 9.49824L20.8554 8.8936C21.0281 8.5481 21.287 8.28896 21.4597 8.28896C21.6323 8.28896 21.8223 8.20259 21.8913 8.11621C21.9777 8.01256 22.323 7.94346 22.6683 7.94346Z" fill="white"/>
<path d="M30.2823 9.86102C30.0578 9.75737 30.4204 9.61917 31.6117 9.37731C32.5095 9.17001 33.4418 9.01453 33.6663 8.99726C33.8907 8.97998 34.0461 9.01453 34.0116 9.04908C33.9771 9.08363 33.1829 9.32549 32.2678 9.56734C31.1801 9.86102 30.4722 9.96468 30.2823 9.86102Z" fill="white"/>
<path d="M31.3527 10.7075C31.4563 10.6384 32.1815 10.3275 32.993 10.0338C33.8044 9.75737 34.495 9.51552 34.5468 9.49824C34.5986 9.49824 34.8231 9.70555 35.0821 9.96468C35.3238 10.2411 35.6 10.5693 35.7036 10.7075C35.859 10.9321 35.7727 10.9666 35.013 10.9839C34.5123 10.9839 33.6836 11.0876 33.1656 11.2258C32.3023 11.4331 32.1642 11.4331 31.698 11.1567C31.3873 10.9666 31.2491 10.7939 31.3527 10.7075Z" fill="white"/>
<path d="M24.3603 11.4676C24.4984 11.3985 25.2753 11.1221 26.0868 10.863C26.8983 10.6039 27.658 10.3966 27.7961 10.4138C27.9342 10.4311 28.0723 10.5175 28.1069 10.6211C28.1414 10.7075 27.399 11.053 26.4839 11.3813C25.2063 11.8131 24.7056 11.9168 24.4466 11.7959C24.1531 11.6404 24.1358 11.5886 24.3603 11.4676Z" fill="white"/>
<path d="M26.0523 12.9533C26.0177 12.9015 26.7429 12.5387 27.6407 12.1587L29.2809 11.4504L29.7989 11.9686C30.0751 12.245 30.2478 12.5042 30.1442 12.5387C30.0406 12.5733 29.3672 12.9015 27.2781 13.9035L26.6911 13.4716C26.3631 13.2297 26.0695 13.0051 26.0523 12.9533Z" fill="white"/>
<path d="M19.526 13.437C20.2339 13.1088 21.0108 12.7633 21.2525 12.6596C21.4942 12.556 21.7532 12.4523 21.8568 12.4523C21.9431 12.4351 22.1848 12.5387 22.3748 12.6769C22.7028 12.9015 22.7028 12.9188 22.2884 13.0397C22.0467 13.1261 21.2352 13.4716 20.4756 13.8344C19.2152 14.439 19.0598 14.4736 18.6627 14.249C18.2311 14.0244 18.2483 14.0071 19.526 13.437Z" fill="white"/>
<path d="M22.2021 14.8882C22.8582 14.5081 23.5488 14.128 23.7387 14.0244C23.9804 13.8862 24.2049 13.9553 24.7228 14.3181C25.0854 14.5599 25.3962 14.8191 25.3962 14.9054C25.3962 14.9745 25.2926 15.0436 25.1717 15.0436C25.0509 15.0609 24.8955 15.0609 24.8264 15.0436C24.7574 15.0436 24.4811 15.1818 24.2222 15.3546C23.9632 15.5446 23.5661 15.7692 23.3244 15.8729C23.0826 15.9765 22.7719 16.1493 22.6337 16.2702C22.4266 16.4257 22.2194 16.3738 20.9935 15.5792L22.2021 14.8882Z" fill="white"/>
<path d="M16.4182 18.7406L17.7476 17.7559C18.4901 17.2031 19.1634 16.7712 19.267 16.7539C19.3533 16.7539 19.7332 16.9439 20.0785 17.1858C20.5964 17.5313 20.7 17.6695 20.5619 17.8768C20.4583 18.015 20.3202 18.1014 20.2511 18.0496C20.1821 18.015 19.8885 18.2223 19.6123 18.4987C19.3188 18.7924 18.8699 19.1897 18.6109 19.3625C18.1447 19.6907 18.1447 19.6907 16.4182 18.7406Z" fill="white"/>
<path d="M40.8487 38.3309C40.2099 38.3309 40.0717 38.279 40.3307 38.1754C40.5206 38.089 40.7451 38.0372 40.8487 38.0372C40.935 38.0372 41.1767 38.089 41.3666 38.1754C41.6256 38.279 41.4875 38.3309 40.8487 38.3309Z" fill="white"/>
<path d="M6.17892 37.7433C6.14439 38.037 6.10986 37.8297 6.10986 37.3115C6.10986 36.7932 6.14439 36.5513 6.17892 36.7932C6.21346 37.0351 6.21346 37.4497 6.17892 37.7433Z" fill="white" fill-opacity="0.5"/>
<path d="M36.739 37.9164C36.7045 38.2101 36.6699 38.0546 36.6699 37.5709C36.6699 37.1045 36.7045 36.8626 36.739 37.0527C36.7735 37.2427 36.7735 37.6227 36.739 37.9164Z" fill="white" fill-opacity="0.2"/>
<path d="M43.6122 7.54591C43.336 7.58046 42.9043 7.58046 42.6626 7.54591C42.4209 7.51136 42.6626 7.47681 43.1806 7.47681C43.6986 7.47681 43.8885 7.51136 43.6122 7.54591Z" fill="white" fill-opacity="0.8"/>
<path d="M12.4483 22.2818C12.3965 22.2818 12.7072 21.9363 13.1389 21.5044C13.5533 21.0725 13.9331 20.727 13.9849 20.727C14.0367 20.727 13.7259 21.0725 13.3115 21.5044C12.8799 21.9363 12.5001 22.2818 12.4483 22.2818Z" fill="white" fill-opacity="0.8"/>
<path d="M38.4646 37.9164C38.43 38.2101 38.3955 38.0546 38.3955 37.5709C38.3955 37.1045 38.43 36.8626 38.4646 37.0527C38.4991 37.2427 38.4991 37.6227 38.4646 37.9164Z" fill="white" fill-opacity="0.5"/>
<path d="M33.5116 12.9534C33.4598 12.9534 33.0454 12.5733 32.562 12.0896C32.0958 11.6059 31.7678 11.2258 31.8368 11.2258C31.9231 11.2258 32.3548 11.6232 32.7864 12.0896C33.2353 12.5733 33.5634 12.9534 33.5116 12.9534Z" fill="white" fill-opacity="0.8"/>
<path fill-rule="evenodd" clip-rule="evenodd" d="M10.9103 29.8316C10.7721 29.9871 10.4786 30.5399 10.2542 31.0754C10.047 31.6109 9.85707 32.1465 9.85707 32.2674C9.85707 32.3711 9.94339 32.4747 10.0297 32.4747C10.1333 32.4747 10.5995 32.8375 11.0829 33.3039C11.6354 33.8222 12.1706 34.5478 12.5505 35.3251C12.8785 35.9989 13.1375 36.6726 13.1375 36.8454C13.1375 37.0872 13.2929 37.1391 14.1389 37.1391C14.6741 37.1391 15.3992 37.0872 15.7273 37.0354L16.3316 36.9318C15.9863 35.2906 15.6928 34.4268 15.451 33.9431C15.2266 33.4767 14.6741 32.6302 14.2597 32.0947C13.8281 31.5418 12.9994 30.7472 12.4123 30.3153C11.8081 29.8834 11.2901 29.5379 11.2383 29.5379C11.1865 29.5379 11.0484 29.6761 10.9103 29.8316ZM10.5822 35.878C10.5822 36.0507 10.634 36.3444 10.7203 36.5344C10.8412 36.8281 10.8757 36.7936 10.893 36.3271C10.9103 36.0334 10.8585 35.7225 10.7549 35.6707C10.6685 35.6188 10.5822 35.7052 10.5822 35.878ZM18.6797 23.0942C18.6797 23.457 18.5415 23.9061 18.3689 24.1134C18.1962 24.3207 17.8509 24.6144 17.5919 24.7699C17.2294 24.9772 17.1085 24.9945 17.1085 24.839C17.1085 24.7181 17.0567 24.6662 16.9877 24.7526C16.9186 24.8217 17.402 25.3918 18.0581 26.0483C18.7315 26.6875 19.5947 27.6376 19.9746 28.1559C20.3717 28.6741 20.976 29.607 21.304 30.2289C21.6493 30.8508 22.1673 32.0083 22.4435 32.8202C22.7198 33.6322 23.0478 34.9624 23.1859 35.7916C23.3758 37.1218 23.4622 37.3118 23.8075 37.3982C24.0147 37.45 24.3772 37.4155 24.6189 37.3118C24.8607 37.2254 25.3614 37.1391 25.7412 37.1391C26.4145 37.1391 26.4318 37.1218 26.4318 36.5344C26.4318 36.2062 26.2764 35.1697 26.0865 34.2541C25.9138 33.3212 25.5513 32.0255 25.3096 31.3518C25.0506 30.6953 24.5671 29.607 24.2218 28.9333C23.8765 28.2768 23.1514 27.1366 22.6162 26.4283C22.0809 25.72 21.0968 24.5971 20.4062 23.9234C19.7328 23.2669 19.0595 22.645 18.9386 22.5759C18.7487 22.4723 18.6969 22.5759 18.6797 23.0942ZM14.0698 25.5127C14.0008 25.5646 13.949 25.9619 13.9662 26.3765C14.0008 26.9984 13.9144 27.223 13.4483 27.7413L12.8785 28.3459C13.5519 28.7778 14.2943 29.4515 14.9503 30.1253C15.8481 31.0236 16.3834 31.7664 16.9531 32.9066C17.4193 33.8222 17.8682 35.0142 18.0408 35.8089C18.2653 36.9318 18.3861 37.1563 18.7142 37.2254C18.9214 37.2773 19.3703 37.2945 19.6983 37.2427C20.0264 37.1909 20.5616 37.1563 20.8724 37.1563C21.3213 37.1391 21.4249 37.07 21.4249 36.759C21.4249 36.5344 21.304 35.8607 21.1831 35.2388C21.045 34.6169 20.6997 33.494 20.4062 32.7338C20.1127 31.9737 19.5429 30.8508 19.1458 30.2289C18.7315 29.6243 17.9718 28.6568 17.4538 28.0868C16.9359 27.5339 16.0726 26.7393 15.5546 26.3419C15.0367 25.9446 14.5187 25.5818 14.4151 25.5127C14.2943 25.4436 14.1561 25.4436 14.0698 25.5127ZM9.11466 34.3405C9.06286 34.4096 8.9938 34.9796 8.92474 35.6361C8.83841 36.6035 8.87294 36.7936 9.08013 36.7936C9.28731 36.7936 9.33911 36.5344 9.33911 35.4979C9.33911 34.7896 9.30458 34.2022 9.25278 34.2022C9.21825 34.2022 9.14919 34.2541 9.11466 34.3405Z" fill="white"/>
<path d="M15.5393 21.8156C15.5221 22.0575 15.6257 22.0056 15.9882 21.6083C16.2472 21.3146 16.5407 21.0728 16.6443 21.0728C16.7652 21.0728 17.2659 21.3664 17.7666 21.7292C18.6126 22.3166 18.6816 22.4202 18.6816 23.0594C18.6816 23.474 18.5608 23.9059 18.3709 24.1132C18.1982 24.3205 17.8529 24.6142 17.5939 24.7697C17.3177 24.9252 17.1105 24.977 17.1105 24.8733C17.1105 24.7697 17.0242 24.7351 16.9378 24.787C16.8515 24.8388 16.23 24.5106 15.5566 24.0614C14.6243 23.4222 14.3998 23.1804 14.5207 22.973C14.5898 22.8348 14.866 22.4375 15.1077 22.1093C15.4185 21.6947 15.5566 21.6083 15.5393 21.8156Z" fill="white"/>
<path d="M11.7928 27.7583C11.7237 27.6892 11.9827 27.0155 12.3453 26.2554C12.7251 25.4953 13.1049 24.8733 13.2085 24.8733C13.3121 24.8733 13.5538 24.977 13.7437 25.1152C14.0373 25.3225 14.0718 25.4953 14.0027 26.3072C13.9337 27.0673 13.8128 27.361 13.3984 27.7929C13.1049 28.0693 12.7769 28.2766 12.6733 28.2248C12.5524 28.1902 12.4488 27.9829 12.4488 27.7756C12.4661 27.4128 12.4316 27.4128 12.1899 27.6374C12.0517 27.7756 11.8618 27.8274 11.7928 27.7583Z" fill="white"/>
<path d="M9.5828 32.0945C9.61733 31.9735 9.91084 31.2998 10.2044 30.626C10.5151 29.935 10.8259 29.3649 10.9122 29.3649C10.9986 29.3649 11.0676 29.434 11.0676 29.5377C11.0676 29.6413 10.9468 29.8314 10.8086 29.9696C10.6705 30.1078 10.377 30.6951 10.1698 31.2652C9.94537 31.8526 9.72092 32.319 9.65186 32.3018C9.56553 32.3018 9.54827 32.1981 9.5828 32.0945Z" fill="white"/>
<path d="M6.8894 37.5707L7.76994 35.705C8.2879 34.6167 8.75406 33.8565 8.85765 33.9084C8.97851 33.9429 9.06484 34.0984 9.04757 34.2193C9.04757 34.3575 8.99578 34.9794 8.92672 35.6359C8.84039 36.6033 8.87492 36.7934 9.0821 36.7934C9.28929 36.7934 9.34108 36.5342 9.34108 34.202L9.92811 34.8585C10.3079 35.2558 10.5669 35.7568 10.6533 36.1887C10.7568 36.8106 10.7741 36.8279 10.8777 36.4478C10.9813 36.0505 10.9986 36.0678 11.2057 36.707C11.3093 37.087 11.4129 37.5535 11.4129 37.7435C11.4129 38.0026 11.2921 38.1063 10.9468 38.1408C10.6705 38.1581 9.87631 38.2272 9.16843 38.279C7.99439 38.3481 7.82173 38.3136 6.8894 37.5707Z" fill="white"/>
<path d="M14.4268 37.0875L14.4344 37.087C15.0904 37.0698 15.8156 37.0179 16.0228 37.0007C16.3681 36.9661 16.4199 37.0525 16.4199 38.089L15.3494 38.2099C14.7451 38.2618 14.0545 38.2618 13.7955 38.2099C13.4502 38.1236 13.3121 37.9681 13.2776 37.6226C13.2259 37.1571 13.243 37.1561 14.4268 37.0875Z" fill="white"/>
<path d="M18.6126 38.2618C18.4227 38.2099 18.3191 38.0026 18.3191 37.709V37.2252L21.4268 37.1389V37.6571C21.4268 38.0717 21.3578 38.1754 21.0297 38.1754C20.8225 38.1927 20.2528 38.2272 19.7866 38.2618C19.3032 38.3136 18.7852 38.3136 18.6126 38.2618Z" fill="white"/>
<path d="M23.7577 37.4153C23.9994 37.4498 24.3619 37.4153 24.5864 37.3289C24.7936 37.2425 25.2943 37.1561 25.7086 37.1561C26.3647 37.1561 26.451 37.1907 26.5374 37.6226C26.5892 37.8817 26.6064 38.1063 26.5719 38.1236C26.5546 38.1236 25.795 38.1927 23.326 38.3654V37.8472C23.326 37.3807 23.3778 37.3289 23.7577 37.4153Z" fill="white"/>
<path d="M14.1225 23.1974C14.0362 23.1111 14.2607 22.42 14.606 21.6427L15.2448 20.2261L16.5915 20.8998L16.1253 21.4699C15.7973 21.85 15.6073 21.9709 15.5556 21.8154C15.5038 21.6772 15.2275 21.9363 14.8649 22.4546C14.5369 22.9383 14.1916 23.2665 14.1225 23.1974Z" fill="white"/>
<path d="M6.5603 38.2616C6.5603 38.2098 6.6121 38.0543 6.66389 37.9161C6.73296 37.7779 6.81928 37.6569 6.88834 37.6569C6.94014 37.6569 7.19912 37.8124 7.8552 38.3307L7.21639 38.348C6.85381 38.348 6.5603 38.3134 6.5603 38.2616Z" fill="white"/>
<path d="M10.7213 38.348C10.2724 38.348 10.1688 38.2961 10.3587 38.1752C10.5141 38.0888 10.7558 38.0024 10.9284 38.0024C11.1011 38.0024 11.2565 38.0715 11.291 38.1752C11.3255 38.2616 11.0666 38.348 10.7213 38.348Z" fill="white"/>
<path d="M16.1426 38.2961C15.9354 38.3307 15.5556 38.3307 15.2793 38.2961C15.0031 38.2616 15.1584 38.227 15.6246 38.227C16.108 38.227 16.3325 38.2616 16.1426 38.2961Z" fill="white"/>
<path d="M25.9838 38.2961C25.604 38.3307 25.0342 38.3307 24.6889 38.2961C24.3609 38.2616 24.6717 38.227 25.3795 38.227C26.1047 38.227 26.3637 38.2616 25.9838 38.2961Z" fill="white"/>
</svg>
